<svg width="240" height="207" viewBox="0 0 240 207" fill="none" xmlns="http://www.w3.org/2000/svg">
<path d="M118.591 39.4175H35.4511L21.3596 67.5728H104.499L118.591 39.4175Z" fill="#5D15FC"/>
<mask id="mask0_12_1357" style="mask-type:luminance" maskUnits="userSpaceOnUse" x="120" y="0" width="99" height="26">
<path d="M218.64 0H120V25.3398H218.64V0Z" fill="white"/>
</mask>
<g mask="url(#mask0_12_1357)">
<path d="M210.185 0H218.64L204.549 25.3398H196.094L210.185 0Z" fill="#5D15FC"/>
<path d="M197.503 0H205.958L191.866 25.3398H183.412L197.503 0Z" fill="#5D15FC"/>
<path d="M184.821 0H193.276L179.184 25.3398H170.729L184.821 0Z" fill="#5D15FC"/>
<path d="M172.138 0H180.593L166.502 25.3398H158.047L172.138 0Z" fill="#5D15FC"/>
<path d="M159.456 0H167.911L153.819 25.3398H145.365L159.456 0Z" fill="#5D15FC"/>
<path d="M146.774 0H155.229L141.137 25.3398H132.682L146.774 0Z" fill="#5D15FC"/>
<path d="M134.091 0H142.546L128.455 25.3398H120L134.091 0Z" fill="#5D15FC"/>
</g>
<mask id="mask1_12_1357" style="mask-type:luminance" maskUnits="userSpaceOnUse" x="70" y="81" width="100" height="26">
<path d="M169.32 81.6504H70.6797V106.99H169.32V81.6504Z" fill="white"/>
</mask>
<g mask="url(#mask1_12_1357)">
<path d="M160.865 81.6504H169.32L155.229 106.99H146.774L160.865 81.6504Z" fill="#5D15FC"/>
<path d="M148.183 81.6504H156.638L142.546 106.99H134.091L148.183 81.6504Z" fill="#5D15FC"/>
<path d="M135.5 81.6504H143.955L129.864 106.99H121.409L135.5 81.6504Z" fill="#5D15FC"/>
<path d="M122.818 81.6504H131.273L117.182 106.99H108.727L122.818 81.6504Z" fill="#5D15FC"/>
<path d="M110.136 81.6504H118.591L104.499 106.99H96.0444L110.136 81.6504Z" fill="#5D15FC"/>
<path d="M97.4535 81.6504H105.908L91.8169 106.99H83.3621L97.4535 81.6504Z" fill="#5D15FC"/>
<path d="M84.7711 81.6504H93.226L79.1346 106.99H70.6797L84.7711 81.6504Z" fill="#5D15FC"/>
</g>
<g clip-path="url(#clip0_12_1357)">
<path d="M41.4225 157.019H27.8793V205.703H13.8406V157.019H0.297363V142.685H41.4225V157.019ZM83.7974 205.703H71.0799V183.297C71.0799 177.448 66.1251 172.67 60.2619 172.67C54.3987 172.67 49.6916 177.366 49.6916 183.214C49.6916 189.063 54.3987 193.759 60.2619 193.759C63.0696 193.759 65.6296 192.935 67.529 191.617V205.538C65.2993 206.28 62.7393 206.692 60.2619 206.692C47.2967 206.692 36.7264 196.147 36.7264 183.214C36.7264 170.281 47.2967 159.737 60.2619 159.737C73.227 159.737 83.7974 170.364 83.7974 183.297V205.703ZM120.14 173.247H119.149C113.451 173.247 112.79 176.707 112.13 188.569C111.139 206.033 96.9348 206.692 94.7051 206.692C92.3928 206.692 91.6496 206.28 90.7412 205.703V193.429C96.5219 193.429 99.1645 191.699 99.1645 181.732C99.1645 164.762 109.817 159.737 117.167 159.737C118.241 159.737 118.901 159.82 120.14 160.067V173.247ZM165.778 205.703H152.895V194.006C152.895 187.992 149.757 184.038 143.481 184.038H139.683C139.683 183.956 139.683 205.703 139.683 205.703H126.965V143.18H139.683V171.435C144.885 172.588 151.326 169.375 151.326 160.643H164.374C164.374 168.716 161.319 173.082 156.116 176.624C161.071 178.931 165.778 182.638 165.778 189.475V205.703ZM209.355 150.264C209.355 154.547 205.886 157.925 201.592 157.925C197.298 157.925 193.83 154.547 193.83 150.264C193.83 145.98 197.298 142.521 201.592 142.521C205.886 142.521 209.355 145.98 209.355 150.264ZM207.786 205.703H195.068V160.643H207.786V205.703ZM240.29 172.753H230.628V186.18C230.628 193.511 234.179 195.818 239.959 193.841V206.692H237.152C223.443 206.692 217.91 198.866 217.91 185.933V147.216H230.628V160.643H240.29V172.753Z" fill="#5D15FC"/>
</g>
<defs>
<clipPath id="clip0_12_1357">
<rect width="240" height="65" fill="white" transform="translate(0 141.99)"/>
</clipPath>
</defs>
</svg>
